<svg width="506" height="2" viewBox="0 0 506 2" fill="none" xmlns="http://www.w3.org/2000/svg">
<line y1="1" x2="8" y2="1" stroke="#FF7A00"/>
<line x1="14" y1="1" x2="22" y2="1" stroke="#FF7A00"/>
<path d="M121.5 1L129.5 1" stroke="#FF7A00"/>
<path d="M159 1L167 1" stroke="#FF7A00"/>
<path d="M146.5 1L154.5 1" stroke="#FF7A00"/>
<line x1="109" y1="1" x2="117" y2="1" stroke="#FF7A00"/>
<line x1="134" y1="1" x2="142" y2="1" stroke="#FF7A00"/>
<line x1="95" y1="1" x2="103" y2="1" stroke="#FF7A00"/>
<line x1="81" y1="1" x2="89" y2="1" stroke="#FF7A00"/>
<line x1="67" y1="1" x2="75" y2="1" stroke="#FF7A00"/>
<line x1="53" y1="1" x2="61" y2="1" stroke="#FF7A00"/>
<line x1="27" y1="1" x2="35" y2="1" stroke="#FF7A00"/>
<line x1="40" y1="1" x2="48" y2="1" stroke="#FF7A00"/>
<line x1="173" y1="1" x2="181" y2="1" stroke="#FF7A00"/>
<line x1="187" y1="1" x2="195" y2="1" stroke="#FF7A00"/>
<path d="M294.5 1L302.5 1" stroke="#FF7A00"/>
<path d="M332 1L340 1" stroke="#FF7A00"/>
<path d="M319.5 1L327.5 1" stroke="#FF7A00"/>
<line x1="282" y1="1" x2="290" y2="1" stroke="#FF7A00"/>
<line x1="307" y1="1" x2="315" y2="1" stroke="#FF7A00"/>
<line x1="268" y1="1" x2="276" y2="1" stroke="#FF7A00"/>
<line x1="254" y1="1" x2="262" y2="1" stroke="#FF7A00"/>
<line x1="240" y1="1" x2="248" y2="1" stroke="#FF7A00"/>
<line x1="226" y1="1" x2="234" y2="1" stroke="#FF7A00"/>
<line x1="200" y1="1" x2="208" y2="1" stroke="#FF7A00"/>
<line x1="213" y1="1" x2="221" y2="1" stroke="#FF7A00"/>
<line x1="345" y1="1" x2="353" y2="1" stroke="#FF7A00"/>
<line x1="359" y1="1" x2="367" y2="1" stroke="#FF7A00"/>
<path d="M466.5 1L474.5 1" stroke="#FF7A00"/>
<path d="M504 1L512 1" stroke="#FF7A00"/>
<path d="M491.5 1L499.5 1" stroke="#FF7A00"/>
<line x1="454" y1="1" x2="462" y2="1" stroke="#FF7A00"/>
<line x1="479" y1="1" x2="487" y2="1" stroke="#FF7A00"/>
<line x1="440" y1="1" x2="448" y2="1" stroke="#FF7A00"/>
<line x1="426" y1="1" x2="434" y2="1" stroke="#FF7A00"/>
<line x1="412" y1="1" x2="420" y2="1" stroke="#FF7A00"/>
<line x1="398" y1="1" x2="406" y2="1" stroke="#FF7A00"/>
<line x1="372" y1="1" x2="380" y2="1" stroke="#FF7A00"/>
<line x1="385" y1="1" x2="393" y2="1" stroke="#FF7A00"/>
</svg>
