<svg width="329" height="105" viewBox="0 0 329 105" fill="none" xmlns="http://www.w3.org/2000/svg">
<path d="M2.09363 67.7385C2.09363 58.5112 1.9046 49.4181 4.93732 40.9265C6.59915 36.2734 6.75549 30.7135 7.82616 25.8955C8.47829 22.9609 10.647 14.927 14.2809 14.927C18.1325 14.927 20.0998 23.3478 21.4127 26.3018C21.896 27.3892 22.3445 30.9485 22.4057 31.9892C22.6012 35.3122 24.8432 37.7778 24.8432 41.3327C24.8432 45.4417 27.8009 50.6693 28.8605 54.3776C30.1069 58.74 31.0479 63.8982 32.968 67.7385" stroke="black" stroke-width="3" stroke-linecap="round"/>
<path d="M36.2178 38.4892C36.2178 43.1078 37.8427 47.5838 37.8427 51.8952C37.8427 55.8166 37.6541 59.0641 40.4607 61.8707C42.6045 64.0144 45.167 66.9261 48.8113 66.9261C52.4464 66.9261 57.4636 66.5144 58.2 62.0964C58.9367 57.6759 59.7798 53.8659 59.7798 49.0515C59.7798 47.1707 59.3688 41.5846 59.8249 43.4092C61.0557 48.3324 61.4048 54.0428 61.4048 59.2527C61.4048 71.7108 61.4048 84.1688 61.4048 96.6269C61.4048 99.1537 61.7954 102.542 58.3354 102.675C51.7883 102.927 46.1909 101.988 39.9191 99.8769C33.1543 97.6003 21.7097 95.8649 26.8742 86.1098C33.0501 74.4441 48.7549 69.0309 58.7868 61.5998C67.0414 55.4853 67.9046 50.0898 67.9046 40.6107C67.9046 36.7415 66.8227 48.6396 68.3109 52.2111C69.0091 53.8869 73.8647 56.654 75.217 54.2875C78.3162 48.8639 80.0919 44.7873 80.0919 38.4892C80.0919 33.9582 81.0377 48.1168 84.064 51.4889C89.2334 57.2491 98.5921 53.6755 103.609 49.7737C107.937 46.4074 107.716 41.8435 107.716 36.8642C107.716 29.4135 118.717 36.7413 122.792 38.3086C124.763 39.0667 146.079 46.216 140.848 50.4959C138.483 52.431 127.265 50.4266 125.23 50.3153C102.776 49.088 80.3418 48.6027 57.884 47.6071C56.3418 47.5387 38.5126 45.8015 47.5925 45.8015" stroke="black" stroke-width="3" stroke-linecap="round"/>
<path d="M138.591 1.92725C139.297 16.7634 143.978 33.8087 149.334 47.5166C150.021 49.2754 153.641 58.5171 153.216 57.8081C151.008 54.1296 152.804 48.3847 154.66 44.9889C155.772 42.9556 159.267 31.2412 163.146 36.4127C166.278 40.5889 169.208 44.9465 172.354 49.1416C173.271 50.3638 175.965 54.7522 175.965 54.7387" stroke="black" stroke-width="3" stroke-linecap="round"/>
<path d="M208.464 5.17725C209.305 5.28229 209.708 6.20602 209.909 6.98277C210.979 11.1314 210.975 15.6188 212.075 19.8922C213.909 27.0116 213.461 34.5809 215.145 41.739C216.205 46.2451 216.589 60.1804 216.589 55.5513" stroke="black" stroke-width="3" stroke-linecap="round"/>
<path d="M227.152 25.4893C225.575 25.8833 223.241 30.8095 222.909 32.3502C222.399 34.7125 220.386 36.3743 219.885 38.1279C219.222 40.4452 213.422 42.1898 217.447 44.5375C220.5 46.3183 224.145 50.2944 226.52 52.9332C228.176 54.7731 232.27 56.4446 234.464 57.1761" stroke="black" stroke-width="3" stroke-linecap="round"/>
<path d="M235.276 31.9893C235.276 37.2221 236.436 43.3384 238.933 47.8327C240.028 49.8052 239.94 52.8585 239.158 47.8778C238.501 43.6873 237.846 39.074 239.339 34.9684C241.353 29.4286 247.469 45.464 250.894 39.5724C252.066 37.5571 252.88 29.9402 256.175 32.9823C261.613 38.0021 267.272 45.4375 274.276 48.2389" stroke="black" stroke-width="3" stroke-linecap="round"/>
<path d="M275.088 29.5518C275.088 34.3198 277.642 37.9907 278.293 42.5515C278.63 44.9086 277.56 47.0374 279.963 48.2389" stroke="black" stroke-width="3" stroke-linecap="round"/>
<path d="M276.713 36.0516C276.713 33.3275 279.281 31.3034 281.408 29.9128C283.101 28.8055 283.471 31.3054 284.838 31.9892" stroke="black" stroke-width="3" stroke-linecap="round"/>
<path d="M5.34375 86.4258C20.6293 86.4258 35.8012 85.6884 51.0685 84.6654C127.364 79.5528 203.706 69.0864 279.151 56.8152C294.286 54.3535 311.448 48.239 327.087 48.239" stroke="black" stroke-width="3" stroke-linecap="round"/>
</svg>
